# Blender v3.5.0 OBJ File: 'room.blend'
# www.blender.org
mtllib room.mtl
o Plane
v -40.000000 40.000000 0.000000
v -40.000000 -40.000000 0.000000
v 40.000000 40.000000 0.000000
v 40.000000 -40.000000 0.000000
vt 0.000000 0.000000
vt 1.000000 0.000000
vt 1.000000 1.000000
vt 0.000000 1.000000
vn 0.0000 0.0000 1.0000
usemtl Material.001
s off
f 1/1/1 2/2/1 4/3/1 3/4/1
o Plane.001
v -0.574745 -7.959260 -0.000001
v -0.361993 -7.959260 -0.000001
v -0.574745 -0.239943 -0.000001
v -0.361993 -0.239943 -0.000001
v -0.574745 -7.718951 -0.000001
v -0.361993 -7.718951 -0.000001
v -0.361993 4.307873 -0.000001
v -0.574745 4.307873 -0.000001
v -0.574745 2.766699 -0.000001
v -0.361993 2.766699 -0.000001
v -0.574745 2.471931 -0.000001
v -0.361993 2.471931 -0.000001
v 1.420828 2.766699 -0.000001
v 1.420828 2.471931 -0.000001
v 6.871524 -7.959260 -0.000001
v 6.871524 -7.718951 -0.000001
v 7.150976 -7.959260 -0.000001
v 7.150976 -7.718951 -0.000001
v 6.871524 2.459721 -0.000001
v 7.150976 2.459721 -0.000001
v 6.871524 2.753058 -0.000001
v 7.150976 2.753058 -0.000001
v 6.871524 7.251182 -0.000001
v 7.150976 7.251182 -0.000001
v 6.871524 7.491671 -0.000001
v 7.150976 7.491671 -0.000001
v -0.340206 7.251182 -0.000001
v -0.340206 7.491671 -0.000001
v 3.063252 2.459721 -0.000001
v 3.063252 2.753058 -0.000001
v -0.568059 7.251182 -0.000001
v -0.568059 7.491671 -0.000001
v -3.052406 7.251182 -0.000001
v -3.052406 7.491671 -0.000001
v -7.724816 -7.959260 -0.000001
v -7.724816 -7.718951 -0.000001
v -7.991429 -7.959260 -0.000001
v -7.991429 -7.718951 -0.000001
v -7.724816 7.257424 -0.000001
v -7.991429 7.257424 -0.000001
v -7.724816 7.493260 -0.000001
v -7.991429 7.493260 -0.000001
v -4.628144 7.257424 -0.000001
v -4.628144 7.493260 -0.000001
v -0.340206 5.900949 -0.000001
v -0.568059 5.900949 -0.000001
v -0.574745 -7.718951 5.231845
v -0.574745 -7.959260 5.231845
v -0.361993 -7.959260 5.231845
v -0.574745 2.471931 5.231845
v -0.574745 -0.239943 5.231845
v -0.361993 -7.718951 5.231845
v -0.361993 -0.239943 5.231845
v -0.361993 2.766699 5.231845
v -0.361993 4.307873 5.231845
v -0.574745 4.307873 5.231845
v -0.574745 2.766699 5.231845
v -0.361993 2.471931 5.231845
v 1.420828 2.471931 5.231845
v 1.420828 2.766699 5.231845
v 6.871524 -7.959260 5.231845
v 6.871524 -7.718951 5.231845
v 7.150976 -7.959260 5.231845
v 7.150976 -7.718951 5.231845
v 7.150976 2.459721 5.231845
v 6.871524 2.459721 5.231845
v 7.150976 2.753058 5.231845
v 6.871524 2.753058 5.231845
v 7.150976 7.251182 5.231845
v 6.871524 7.251182 5.231845
v 7.150976 7.491671 5.231845
v 6.871524 7.491671 5.231845
v -0.340206 7.491671 5.231845
v -0.340206 7.251182 5.231845
v 3.063252 2.753058 5.231845
v 3.063252 2.459721 5.231845
v -0.568059 7.491671 5.231845
v -0.568059 7.251182 5.231845
v -3.052406 7.491671 5.231845
v -3.052406 7.251182 5.231845
v -7.724816 -7.718951 5.231845
v -7.724816 -7.959260 5.231845
v -7.991429 -7.718951 5.231845
v -7.991429 -7.959260 5.231845
v -7.724816 7.257424 5.231845
v -7.991429 7.257424 5.231845
v -7.724816 7.493260 5.231845
v -7.991429 7.493260 5.231845
v -4.628144 7.257424 5.231845
v -4.628144 7.493260 5.231845
v -0.568059 5.900949 5.231845
v -0.340206 5.900949 5.231845
v -0.361993 -3.803059 -0.000001
v -0.574745 -3.803059 -0.000001
v -0.361993 -3.803059 5.231845
v -0.574745 -3.803059 5.231845
v -0.361993 -2.201416 -0.000001
v -0.361993 -2.201416 5.231845
v -0.574745 -2.201416 -0.000001
v -0.574745 -2.201416 5.231845
v -4.628144 7.257424 3.997615
v -7.724816 7.257424 3.997615
v -0.574745 -7.959260 3.997615
v -7.724816 -7.959260 3.997615
v -0.340206 5.900949 3.997615
v -0.568059 5.900949 3.997615
v 7.150976 -7.959260 3.997615
v 6.871524 -7.959260 3.997615
v -7.724816 -7.718951 3.997615
v -0.574745 -7.718951 3.997615
v 6.871524 7.251182 3.997615
v -0.340206 7.251182 3.997615
v -7.991429 -7.959260 3.997615
v -7.991429 -7.718951 3.997615
v -0.340206 7.491671 3.997615
v 6.871524 7.491671 3.997615
v -0.568059 7.251182 3.997615
v 6.871524 -7.718951 3.997615
v 6.871524 2.459721 3.997615
v 3.063252 2.459721 3.997615
v 3.063252 2.753058 3.997615
v 7.150976 2.459721 3.997615
v 7.150976 -7.718951 3.997615
v -0.361993 -7.959260 3.997615
v 6.871524 2.753058 3.997615
v -7.991429 7.257424 3.997615
v -0.361993 -7.718951 3.997615
v 7.150976 2.753058 3.997615
v -7.991429 7.493260 3.997615
v -7.724816 7.493260 3.997615
v -0.568059 7.491671 3.997615
v -3.052406 7.251182 3.997615
v -3.052406 7.491671 3.997615
v 7.150976 7.251182 3.997615
v 7.150976 7.491671 3.997615
v -4.628144 7.493260 3.997615
v -0.574745 -3.803059 3.997615
v -0.361993 -3.803059 3.997615
v -0.574745 4.307873 3.996771
v -0.361993 4.307873 3.996771
v -0.574745 2.471931 3.996771
v -0.574745 2.766699 3.996771
v -0.361993 2.471931 3.996771
v -0.361993 -0.239943 3.996771
v -0.574745 -0.239943 3.996771
v 1.420828 2.766699 3.996771
v 1.420828 2.471931 3.996771
v -0.361993 2.766699 3.996771
v -0.574745 -2.201416 3.996771
v -0.361993 -2.201416 3.996771
v -7.724816 7.257424 1.993059
v -7.724816 -7.959260 1.993059
v -0.568059 5.900949 1.993059
v 6.871524 -7.959260 1.993059
v -0.574745 -7.718951 1.993059
v -0.340206 7.251182 1.993059
v -7.991429 -7.718951 1.993059
v 6.871524 7.491671 1.993059
v -0.568059 7.251182 1.993059
v 6.871524 2.459721 1.993059
v 3.063252 2.753058 1.993059
v 7.150976 -7.718951 1.993059
v 6.871524 2.753058 1.993059
v -7.991429 7.257424 1.993059
v -0.361993 -7.718951 1.993059
v -7.724816 7.493260 1.993059
v -3.052406 7.491671 1.993059
v 7.150976 7.491671 1.993059
v -4.628144 7.257424 1.993059
v -0.574745 -7.959260 1.993059
v -0.340206 5.900949 1.993059
v 7.150976 -7.959260 1.993059
v -7.724816 -7.718951 1.993059
v 6.871524 7.251182 1.993059
v -7.991429 -7.959260 1.993059
v -0.340206 7.491671 1.993059
v 6.871524 -7.718951 1.993059
v 3.063252 2.459721 1.993059
v 7.150976 2.459721 1.993059
v -0.361993 -7.959260 1.993059
v 7.150976 2.753058 1.993059
v -7.991429 7.493260 1.993059
v -0.568059 7.491671 1.993059
v -3.052406 7.251182 1.993059
v 7.150976 7.251182 1.993059
v -4.628144 7.493260 1.993059
v -0.574745 -3.803059 1.993059
v -0.361993 -3.803059 1.993059
v -0.361993 4.307873 1.993266
v -0.574745 2.766699 1.993266
v -0.361993 -0.239943 1.993266
v 1.420828 2.471931 1.993266
v -0.574745 4.307873 1.993266
v -0.574745 2.471931 1.993266
v -0.361993 2.471931 1.993266
v -0.574745 -0.239943 1.993266
v 1.420828 2.766699 1.993266
v -0.361993 2.766699 1.993266
v -0.574745 -2.201416 1.993266
v -0.361993 -2.201416 1.993266
v -6.500288 -7.959260 -0.000001
v -6.500288 -7.718951 -0.000001
v -6.500288 -7.959260 5.231845
v -6.500288 -7.718951 5.231845
v -6.500288 -7.718951 3.997615
v -6.500288 -7.959260 3.997615
v -6.500288 -7.959260 1.993059
v -6.500288 -7.718951 1.993059
v -1.908147 -7.959260 -0.000001
v -1.908147 -7.959260 5.231845
v -1.908147 -7.718951 3.997615
v -1.908147 -7.718951 1.993059
v -1.908147 -7.718951 -0.000001
v -1.908147 -7.718951 5.231845
v -1.908147 -7.959260 3.997615
v -1.908147 -7.959260 1.993059
v 0.839839 -7.718951 -0.000001
v 0.839839 -7.959260 -0.000001
v 0.839839 -7.718951 5.231845
v 0.839839 -7.959260 5.231845
v 0.839839 -7.959260 3.997615
v 0.839839 -7.718951 3.997615
v 0.839839 -7.718951 1.993059
v 0.839839 -7.959260 1.993059
v 5.659374 -7.959260 -0.000001
v 5.659374 -7.959260 5.231845
v 5.659374 -7.718951 3.997615
v 5.659374 -7.718951 1.993059
v 5.659374 -7.718951 -0.000001
v 5.659374 -7.718951 5.231845
v 5.659374 -7.959260 3.997615
v 5.659374 -7.959260 1.993059
v -7.991428 7.491670 -0.205834
v -7.991428 7.491670 -0.000001
v 7.150977 7.491670 -0.205834
v 7.150977 7.491670 -0.000001
v -7.991428 -7.959260 -0.205834
v -7.991428 -7.959260 -0.000001
v 7.150977 -7.959260 -0.205834
v 7.150977 -7.959260 -0.000001
vt 0.984435 0.000000
vt 0.984435 1.000000
vt 1.000000 1.000000
vt 1.000000 0.000000
vt 0.324345 0.000000
vt 0.324345 1.000000
vt 0.500000 1.000000
vt 0.500000 0.000000
vt 0.742217 0.000000
vt 0.742217 1.000000
vt 0.305252 0.000000
vt 0.305252 0.000000
vt 0.305252 1.000000
vt 0.305252 1.000000
vt 0.305252 1.000000
vt 0.324345 1.000000
vt 0.984434 1.000000
vt 0.984435 1.000000
vt 1.000000 1.000000
vt 1.000000 1.000000
vt 0.984435 1.000000
vt 1.000000 1.000000
vt 0.984435 1.000000
vt 0.984435 1.000000
vt 0.984435 1.000000
vt 0.984435 1.000000
vt 0.984435 1.000000
vt 0.984435 1.000000
vt 0.984435 1.000000
vt 0.984435 1.000000
vt 0.984435 1.000000
vt 0.984435 1.000000
vt 0.984435 1.000000
vt 0.984435 1.000000
vt 0.984435 1.000000
vt 0.984435 1.000000
vt 0.984435 1.000000
vt 0.984435 1.000000
vt 1.000000 0.000000
vt 1.000000 0.000000
vt 0.984435 0.000000
vt 0.984435 0.000000
vt 1.000000 0.000000
vt 0.984435 0.000000
vt 0.984435 0.000000
vt 0.984435 0.000000
vt 0.984435 0.000000
vt 0.984435 0.000000
vt 0.984435 0.000000
vt 0.984435 0.000000
vt 0.984435 1.000000
vt 0.984435 1.000000
vt 0.984435 0.000000
vt 1.000000 0.000000
vt 1.000000 1.000000
vt 0.984435 1.000000
vt 0.324345 0.000000
vt 0.500000 0.000000
vt 0.500000 1.000000
vt 0.324345 1.000000
vt 0.742217 0.000000
vt 0.742217 1.000000
vt 0.305252 0.000000
vt 0.305252 1.000000
vt 0.305252 1.000000
vt 0.305252 0.000000
vt 0.324345 1.000000
vt 0.305252 1.000000
vt 0.984434 1.000000
vt 1.000000 1.000000
vt 1.000000 1.000000
vt 0.984435 1.000000
vt 1.000000 1.000000
vt 0.984435 1.000000
vt 0.984435 1.000000
vt 0.984435 1.000000
vt 0.984435 1.000000
vt 0.984435 1.000000
vt 0.984435 1.000000
vt 0.984435 1.000000
vt 0.984435 1.000000
vt 0.984435 1.000000
vt 0.984435 1.000000
vt 0.984435 1.000000
vt 0.984435 1.000000
vt 0.984435 1.000000
vt 0.984435 1.000000
vt 0.984435 1.000000
vt 0.984435 1.000000
vt 0.984435 1.000000
vt 1.000000 0.000000
vt 0.984435 0.000000
vt 0.984435 0.000000
vt 1.000000 0.000000
vt 0.984435 0.000000
vt 1.000000 0.000000
vt 0.984435 0.000000
vt 0.984435 0.000000
vt 0.984435 0.000000
vt 0.984435 0.000000
vt 0.984435 0.000000
vt 0.984435 0.000000
vt 0.984435 1.000000
vt 0.984435 1.000000
vt 0.984434 0.000000
vt 0.984435 0.000000
vt 1.000000 0.000000
vt 1.000000 0.000000
vt 1.000000 0.000000
vt 1.000000 1.000000
vt 1.000000 1.000000
vt 0.984435 0.000000
vt 0.984435 0.000000
vt 0.984435 1.000000
vt 0.984435 1.000000
vt 0.984435 1.000000
vt 0.984435 0.000000
vt 1.000000 0.000000
vt 0.984435 1.000000
vt 0.984435 1.000000
vt 0.984435 1.000000
vt 0.984435 1.000000
vt 0.984435 1.000000
vt 0.984435 1.000000
vt 1.000000 0.000000
vt 0.305252 0.000000
vt 0.324345 0.000000
vt 0.984435 1.000000
vt 0.984435 1.000000
vt 0.500000 1.000000
vt 0.324345 1.000000
vt 0.984434 1.000000
vt 1.000000 1.000000
vt 0.984435 1.000000
vt 0.984435 1.000000
vt 0.500000 0.000000
vt 0.984435 0.000000
vt 0.621109 1.000000
vt 0.621109 1.000000
vt 0.984435 1.000000
vt 0.305252 1.000000
vt 0.305252 1.000000
vt 0.984435 0.000000
vt 0.984435 0.000000
vt 0.324345 1.000000
vt 0.984435 1.000000
vt 0.742217 0.000000
vt 0.984435 0.000000
vt 0.984435 1.000000
vt 0.984434 1.000000
vt 0.984435 1.000000
vt 0.984434 1.000000
vt 0.984435 1.000000
vt 0.984435 1.000000
vt 1.000000 1.000000
vt 0.984435 1.000000
vt 0.305252 1.000000
vt 0.984435 0.000000
vt 0.305252 0.000000
vt 0.742217 1.000000
vt 0.742217 0.000000
vt 0.742217 1.000000
vt 0.621109 1.000000
vt 0.621109 0.000000
vt 0.621109 0.000000
vt 0.621109 0.000000
vt 0.984435 1.000000
vt 0.984435 1.000000
vt 0.984435 1.000000
vt 1.000000 1.000000
vt 0.984435 1.000000
vt 0.984435 0.000000
vt 0.984435 0.000000
vt 0.984435 1.000000
vt 0.984435 1.000000
vt 1.000000 1.000000
vt 1.000000 1.000000
vt 0.984435 0.000000
vt 0.984435 1.000000
vt 0.984434 1.000000
vt 0.984435 1.000000
vt 0.984435 1.000000
vt 0.984435 1.000000
vt 0.984435 0.000000
vt 0.984435 0.000000
vt 0.984435 1.000000
vt 0.984435 1.000000
vt 0.984435 0.000000
vt 0.984435 1.000000
vt 0.984435 0.000000
vt 0.984434 0.000000
vt 0.984435 1.000000
vt 0.984435 0.000000
vt 0.984435 1.000000
vt 1.000000 0.000000
vt 1.000000 1.000000
vt 0.984434 1.000000
vt 0.984435 1.000000
vt 1.000000 0.000000
vt 1.000000 0.000000
vt 0.984435 1.000000
vt 0.984435 1.000000
vt 0.984435 1.000000
vt 0.984435 1.000000
vt 0.984435 0.000000
vt 1.000000 0.000000
vt 0.621109 1.000000
vt 0.621109 0.000000
vt 0.500000 0.000000
vt 0.305252 0.000000
vt 0.305252 0.000000
vt 0.305252 1.000000
vt 0.305252 1.000000
vt 0.324345 1.000000
vt 0.324345 1.000000
vt 0.305252 1.000000
vt 0.500000 1.000000
vt 0.324345 0.000000
vt 1.000000 0.000000
vt 0.984434 1.000000
vt 0.984435 0.000000
vt 0.984435 0.000000
vt 1.000000 0.000000
vt 1.000000 0.000000
vt 0.984435 0.000000
vt 0.984435 0.000000
vt 1.000000 1.000000
vt 1.000000 1.000000
vt 0.984435 1.000000
vt 1.000000 1.000000
vt 1.000000 1.000000
vt 0.984434 1.000000
vt 0.375000 0.000000
vt 0.625000 0.000000
vt 0.625000 0.250000
vt 0.375000 0.250000
vt 0.625000 0.500000
vt 0.375000 0.500000
vt 0.625000 0.750000
vt 0.375000 0.750000
vt 0.625000 1.000000
vt 0.375000 1.000000
vt 0.125000 0.500000
vt 0.125000 0.750000
vt 0.875000 0.500000
vt 0.875000 0.750000
vn 0.0000 0.0000 -1.0000
vn 0.0000 0.0000 1.0000
vn 0.0000 -1.0000 0.0000
vn 0.0000 1.0000 0.0000
vn 1.0000 0.0000 0.0000
vn -1.0000 0.0000 0.0000
vn 0.0083 1.0000 0.0000
vn 0.0005 0.0000 -1.0000
vn -0.0074 -1.0000 0.0000
vn -1.0000 0.0042 0.0000
vn 0.0000 0.0005 -1.0000
vn 0.9999 -0.0137 0.0000
vn 0.0000 -0.0005 -1.0000
vn -0.0040 -1.0000 0.0000
vn 0.0010 1.0000 0.0000
usemtl None
s off
f 9/5/2 10/6/2 6/7/2 5/8/2
f 15/9/2 16/10/2 8/11/2 7/12/2
f 98/13/2 97/14/2 10/6/2 9/5/2
f 13/15/2 12/16/2 11/17/2 14/18/2
f 13/15/2 14/18/2 16/10/2 15/9/2
f 14/18/2 17/19/2 18/20/2 16/10/2
f 233/21/2 20/22/2 19/23/2 229/24/2
f 20/22/2 22/25/2 21/26/2 19/23/2
f 20/22/2 23/27/2 24/28/2 22/25/2
f 23/27/2 25/29/2 26/30/2 24/28/2
f 25/29/2 27/31/2 28/32/2 26/30/2
f 27/31/2 29/33/2 30/34/2 28/32/2
f 27/31/2 31/35/2 32/36/2 29/33/2
f 23/27/2 33/37/2 34/38/2 25/29/2
f 31/35/2 35/39/2 36/40/2 32/36/2
f 35/39/2 37/41/2 38/42/2 36/40/2
f 205/43/2 39/44/2 40/45/2 206/46/2
f 39/44/2 41/47/2 42/48/2 40/45/2
f 42/48/2 44/49/2 43/50/2 40/45/2
f 44/49/2 46/51/2 45/52/2 43/50/2
f 45/52/2 48/53/2 47/54/2 43/50/2
f 31/35/2 49/55/2 50/56/2 35/39/2
f 51/57/3 52/58/3 53/59/3 56/60/3
f 54/61/3 55/62/3 57/63/3 62/64/3
f 100/65/3 51/57/3 56/60/3 99/66/3
f 61/67/3 58/68/3 59/69/3 60/70/3
f 61/67/3 54/61/3 62/64/3 58/68/3
f 58/68/3 62/64/3 63/71/3 64/72/3
f 234/73/3 230/74/3 65/75/3 66/76/3
f 66/76/3 65/75/3 67/77/3 68/78/3
f 66/76/3 68/78/3 69/79/3 70/80/3
f 70/80/3 69/79/3 71/81/3 72/82/3
f 72/82/3 71/81/3 73/83/3 74/84/3
f 74/84/3 73/83/3 75/85/3 76/86/3
f 74/84/3 76/86/3 77/87/3 78/88/3
f 70/80/3 72/82/3 79/89/3 80/90/3
f 78/88/3 77/87/3 81/91/3 82/92/3
f 82/92/3 81/91/3 83/93/3 84/94/3
f 207/95/3 208/96/3 85/97/3 86/98/3
f 86/98/3 85/97/3 87/99/3 88/100/3
f 87/99/3 85/97/3 89/101/3 90/102/3
f 90/102/3 89/101/3 91/103/3 92/104/3
f 91/103/3 89/101/3 93/105/3 94/106/3
f 78/88/3 82/92/3 95/107/3 96/108/3
f 106/109/4 105/110/4 93/105/4 89/101/4
f 219/111/4 107/112/4 52/58/4 214/113/4
f 112/114/4 111/115/4 67/77/4 65/75/4
f 209/116/5 113/117/5 85/97/5 208/96/5
f 116/118/4 115/119/4 74/84/4 78/88/4
f 109/120/6 116/118/6 78/88/6 96/108/6
f 118/121/7 117/122/7 88/100/7 87/99/7
f 120/123/5 119/124/5 77/87/5 76/86/5
f 121/125/7 110/126/7 95/107/7 82/92/7
f 123/127/7 122/128/7 66/76/7 70/80/7
f 117/122/4 108/129/4 86/98/4 88/100/4
f 146/130/7 145/131/7 54/61/7 61/67/7
f 127/132/6 126/133/6 69/79/6 68/78/6
f 148/134/6 147/135/6 62/64/6 57/63/6
f 124/136/4 123/127/4 70/80/4 80/90/4
f 107/112/4 128/137/4 53/59/4 52/58/4
f 129/138/5 125/139/5 79/89/5 72/82/5
f 145/131/7 149/140/7 55/62/7 54/61/7
f 130/141/7 118/121/7 87/99/7 90/102/7
f 154/142/6 148/134/6 57/63/6 102/143/6
f 126/133/6 132/144/6 71/81/6 69/79/6
f 113/117/6 106/109/6 89/101/6 85/97/6
f 150/145/5 152/146/5 58/68/5 64/72/5
f 134/147/5 133/148/5 92/104/5 91/103/5
f 147/135/4 151/149/4 63/71/4 62/64/4
f 119/124/5 135/150/5 81/91/5 77/87/5
f 141/151/7 114/152/7 51/57/7 100/65/7
f 115/119/7 129/138/7 72/82/7 74/84/7
f 133/148/7 130/141/7 90/102/7 92/104/7
f 132/144/6 138/153/6 73/83/6 71/81/6
f 226/154/5 131/155/5 56/60/5 223/156/5
f 136/157/4 121/125/4 82/92/4 84/94/4
f 139/158/5 120/123/5 76/86/5 75/85/5
f 235/159/4 112/114/4 65/75/4 230/74/4
f 135/150/5 137/160/5 83/93/5 81/91/5
f 152/146/6 144/161/6 59/69/6 58/68/6
f 140/162/5 134/147/5 91/103/5 94/106/5
f 111/115/6 127/132/6 68/78/6 67/77/6
f 143/163/7 146/130/7 61/67/7 60/70/7
f 138/153/6 139/158/6 75/85/6 73/83/6
f 131/155/6 142/164/6 99/66/6 56/60/6
f 191/165/5 192/166/5 97/14/5 98/13/5
f 7/12/2 8/11/2 101/167/2 103/168/2
f 55/62/3 104/169/3 102/143/3 57/63/3
f 149/140/7 153/170/7 104/169/7 55/62/7
f 169/171/6 192/166/6 142/164/6 131/155/6
f 189/172/6 172/173/6 139/158/6 138/153/6
f 176/174/6 166/175/6 127/132/6 111/115/6
f 190/176/5 170/177/5 134/147/5 140/162/5
f 187/178/5 171/179/5 137/160/5 135/150/5
f 236/180/4 158/181/4 112/114/4 235/159/4
f 173/182/6 190/176/6 140/162/6 105/110/6
f 172/173/5 162/183/5 120/123/5 139/158/5
f 188/184/4 163/185/4 121/125/4 136/157/4
f 227/186/5 169/171/5 131/155/5 226/154/5
f 185/187/6 189/172/6 138/153/6 132/144/6
f 171/179/7 188/184/7 136/157/7 137/160/7
f 186/188/7 168/189/7 130/141/7 133/148/7
f 178/190/7 167/191/7 129/138/7 115/119/7
f 191/165/7 159/192/7 114/152/7 141/151/7
f 180/193/5 187/178/5 135/150/5 119/124/5
f 170/177/5 186/188/5 133/148/5 134/147/5
f 177/194/6 155/195/6 106/109/6 113/117/6
f 183/196/6 185/187/6 132/144/6 126/133/6
f 168/189/7 161/197/7 118/121/7 130/141/7
f 167/191/5 165/198/5 125/139/5 129/138/5
f 174/199/4 184/200/4 128/137/4 107/112/4
f 182/201/4 164/202/4 123/127/4 124/136/4
f 166/175/6 183/196/6 126/133/6 127/132/6
f 165/198/7 182/201/7 124/136/7 125/139/7
f 179/203/4 156/204/4 108/129/4 117/122/4
f 164/202/7 181/205/7 122/128/7 123/127/7
f 163/185/7 157/206/7 110/126/7 121/125/7
f 162/183/5 180/193/5 119/124/5 120/123/5
f 161/197/7 179/203/7 117/122/7 118/121/7
f 175/207/6 160/208/6 116/118/6 109/120/6
f 160/208/4 178/190/4 115/119/4 116/118/4
f 212/209/5 177/194/5 113/117/5 209/116/5
f 158/181/4 176/174/4 111/115/4 112/114/4
f 157/206/4 175/207/4 109/120/4 110/126/4
f 220/210/4 174/199/4 107/112/4 219/111/4
f 155/195/4 173/182/4 105/110/4 106/109/4
f 204/211/4 154/142/4 153/170/4 203/212/4
f 200/213/7 203/212/7 153/170/7 149/140/7
f 197/214/7 194/215/7 146/130/7 143/163/7
f 202/216/6 193/217/6 144/161/6 152/146/6
f 199/218/4 196/219/4 151/149/4 147/135/4
f 201/220/5 202/216/5 152/146/5 150/145/5
f 204/211/6 195/221/6 148/134/6 154/142/6
f 196/219/6 201/220/6 150/145/6 151/149/6
f 198/222/7 200/213/7 149/140/7 145/131/7
f 195/221/6 199/218/6 147/135/6 148/134/6
f 194/215/7 198/222/7 145/131/7 146/130/7
f 193/217/5 197/214/5 143/163/5 144/161/5
f 79/89/8 125/139/8 150/145/8 64/72/8
f 125/139/9 124/136/9 151/149/9 150/145/9
f 124/136/10 80/90/10 63/71/10 151/149/10
f 80/90/3 79/89/3 64/72/3 63/71/3
f 95/107/11 110/126/11 143/163/11 60/70/11
f 110/126/12 109/120/12 144/161/12 143/163/12
f 109/120/13 96/108/13 59/69/13 144/161/13
f 96/108/3 95/107/3 60/70/3 59/69/3
f 153/170/14 154/142/14 142/164/14 141/151/14
f 154/142/6 102/143/6 99/66/6 142/164/6
f 102/143/3 104/169/3 100/65/3 99/66/3
f 104/169/7 153/170/7 141/151/7 100/65/7
f 93/105/15 105/110/15 136/157/15 84/94/15
f 105/110/2 140/162/2 137/160/2 136/157/2
f 140/162/16 94/106/16 83/93/16 137/160/16
f 94/106/3 93/105/3 84/94/3 83/93/3
f 43/50/4 47/54/4 173/182/4 155/195/4
f 213/223/4 5/8/4 174/199/4 220/210/4
f 50/56/4 49/55/4 175/207/4 157/206/4
f 19/23/4 21/26/4 176/174/4 158/181/4
f 206/46/5 40/45/5 177/194/5 212/209/5
f 31/35/4 27/31/4 178/190/4 160/208/4
f 49/55/6 31/35/6 160/208/6 175/207/6
f 42/48/7 41/47/7 179/203/7 161/197/7
f 29/33/5 32/36/5 180/193/5 162/183/5
f 35/39/7 50/56/7 157/206/7 163/185/7
f 23/27/7 20/22/7 181/205/7 164/202/7
f 41/47/4 39/44/4 156/204/4 179/203/4
f 34/38/7 33/37/7 182/201/7 165/198/7
f 22/25/6 24/28/6 183/196/6 166/175/6
f 33/37/4 23/27/4 164/202/4 182/201/4
f 5/8/4 6/7/4 184/200/4 174/199/4
f 25/29/5 34/38/5 165/198/5 167/191/5
f 44/49/7 42/48/7 161/197/7 168/189/7
f 24/28/6 26/30/6 185/187/6 183/196/6
f 40/45/6 43/50/6 155/195/6 177/194/6
f 45/52/5 46/51/5 186/188/5 170/177/5
f 32/36/5 36/40/5 187/178/5 180/193/5
f 98/13/7 9/5/7 159/192/7 191/165/7
f 27/31/7 25/29/7 167/191/7 178/190/7
f 46/51/7 44/49/7 168/189/7 186/188/7
f 38/42/7 37/41/7 188/184/7 171/179/7
f 26/30/6 28/32/6 189/172/6 185/187/6
f 221/224/5 10/6/5 169/171/5 227/186/5
f 37/41/4 35/39/4 163/185/4 188/184/4
f 30/34/5 29/33/5 162/183/5 172/173/5
f 47/54/6 48/53/6 190/176/6 173/182/6
f 229/24/4 19/23/4 158/181/4 236/180/4
f 36/40/5 38/42/5 171/179/5 187/178/5
f 48/53/5 45/52/5 170/177/5 190/176/5
f 21/26/6 22/25/6 166/175/6 176/174/6
f 28/32/6 30/34/6 172/173/6 189/172/6
f 10/6/6 97/14/6 192/166/6 169/171/6
f 141/151/5 142/164/5 192/166/5 191/165/5
f 11/17/5 12/16/5 197/214/5 193/217/5
f 13/15/7 15/9/7 198/222/7 194/215/7
f 8/11/6 16/10/6 199/218/6 195/221/6
f 15/9/7 7/12/7 200/213/7 198/222/7
f 18/20/6 17/19/6 201/220/6 196/219/6
f 101/167/6 8/11/6 195/221/6 204/211/6
f 17/19/5 14/18/5 202/216/5 201/220/5
f 16/10/4 18/20/4 196/219/4 199/218/4
f 14/18/6 11/17/6 193/217/6 202/216/6
f 12/16/7 13/15/7 194/215/7 197/214/7
f 7/12/7 103/168/7 203/212/7 200/213/7
f 101/167/4 204/211/4 203/212/4 103/168/4
f 217/225/5 206/46/5 212/209/5 216/226/5
f 39/44/4 205/43/4 211/227/4 156/204/4
f 156/204/4 211/227/4 210/228/4 108/129/4
f 209/116/2 215/229/2 219/111/2 210/228/2
f 215/229/5 209/116/5 208/96/5 218/230/5
f 108/129/4 210/228/4 207/95/4 86/98/4
f 214/113/3 218/230/3 208/96/3 207/95/3
f 213/223/2 205/43/2 206/46/2 217/225/2
f 5/8/2 213/223/2 217/225/2 9/5/2
f 52/58/3 51/57/3 218/230/3 214/113/3
f 114/152/5 215/229/5 218/230/5 51/57/5
f 159/192/5 216/226/5 215/229/5 114/152/5
f 9/5/5 217/225/5 216/226/5 159/192/5
f 205/43/4 213/223/4 220/210/4 211/227/4
f 212/209/6 209/116/6 210/228/6 211/227/6
f 210/228/4 219/111/4 214/113/4 207/95/4
f 6/7/4 222/231/4 228/232/4 184/200/4
f 233/21/5 221/224/5 227/186/5 232/233/5
f 216/226/3 212/209/3 211/227/3 220/210/3
f 184/200/4 228/232/4 225/234/4 128/137/4
f 128/137/4 225/234/4 224/235/4 53/59/4
f 231/236/5 226/154/5 223/156/5 234/73/5
f 56/60/3 53/59/3 224/235/3 223/156/3
f 10/6/2 221/224/2 222/231/2 6/7/2
f 122/128/5 231/236/5 234/73/5 66/76/5
f 181/205/5 232/233/5 231/236/5 122/128/5
f 20/22/5 233/21/5 232/233/5 181/205/5
f 222/231/4 229/24/4 236/180/4 228/232/4
f 215/229/7 216/226/7 220/210/7 219/111/7
f 225/234/4 235/159/4 230/74/4 224/235/4
f 223/156/3 224/235/3 230/74/3 234/73/3
f 221/224/2 233/21/2 229/24/2 222/231/2
f 231/236/7 232/233/7 236/180/7 235/159/7
f 232/233/3 227/186/3 228/232/3 236/180/3
f 227/186/6 226/154/6 225/234/6 228/232/6
f 226/154/2 231/236/2 235/159/2 225/234/2
f 237/237/5 238/238/5 240/239/5 239/240/5
f 239/240/6 240/239/6 244/241/6 243/242/6
f 243/242/4 244/241/4 242/243/4 241/244/4
f 241/244/7 242/243/7 238/245/7 237/246/7
f 239/247/2 243/242/2 241/244/2 237/248/2
f 244/241/3 240/249/3 238/250/3 242/243/3
o Cube_Cube.002
v -8.283128 -27.187992 -0.006897
v -8.283128 -27.187992 1.993103
v -6.683128 -27.187992 -0.006897
v -6.683128 -27.187992 1.993103
v -8.283128 -28.787991 -0.006897
v -8.283128 -28.787991 1.993103
v -6.683128 -28.787991 -0.006897
v -6.683128 -28.787991 1.993103
vt 0.375000 0.000000
vt 0.625000 0.000000
vt 0.625000 0.250000
vt 0.375000 0.250000
vt 0.625000 0.500000
vt 0.375000 0.500000
vt 0.625000 0.750000
vt 0.375000 0.750000
vt 0.625000 1.000000
vt 0.375000 1.000000
vt 0.125000 0.500000
vt 0.125000 0.750000
vt 0.875000 0.500000
vt 0.875000 0.750000
vn 0.0000 1.0000 0.0000
vn 1.0000 0.0000 0.0000
vn 0.0000 -1.0000 0.0000
vn -1.0000 0.0000 0.0000
vn 0.0000 0.0000 -1.0000
vn 0.0000 0.0000 1.0000
usemtl Material.002
s off
f 245/251/17 246/252/17 248/253/17 247/254/17
f 247/254/18 248/253/18 252/255/18 251/256/18
f 251/256/19 252/255/19 250/257/19 249/258/19
f 249/258/20 250/257/20 246/259/20 245/260/20
f 247/261/21 251/256/21 249/258/21 245/262/21
f 252/255/22 248/263/22 246/264/22 250/257/22
